<svg xmlns="http://www.w3.org/2000/svg" xmlns:xlink="http://www.w3.org/1999/xlink" width="560" zoomAndPan="magnify" viewBox="0 0 420 236.249991" height="315" preserveAspectRatio="xMidYMid meet" version="1.0"><defs><g/><clipPath id="fcbe295cf2"><path d="M 0.664062 37.785156 L 419.335938 37.785156 L 419.335938 173.910156 L 0.664062 173.910156 Z M 0.664062 37.785156 " clip-rule="nonzero"/></clipPath><clipPath id="80f50a273d"><path d="M 0.664062 37.785156 L 419.335938 37.785156 L 419.335938 173.851562 L 0.664062 173.851562 Z M 0.664062 37.785156 " clip-rule="nonzero"/></clipPath><clipPath id="9af1a1b76c"><path d="M 114.011719 154.285156 L 305.988281 154.285156 L 305.988281 182.566406 L 114.011719 182.566406 Z M 114.011719 154.285156 " clip-rule="nonzero"/></clipPath></defs><g clip-path="url(#fcbe295cf2)"><path fill="#000000" d="M 0.664062 37.785156 L 419.148438 37.785156 L 419.148438 173.910156 L 0.664062 173.910156 Z M 0.664062 37.785156 " fill-opacity="1" fill-rule="nonzero"/></g><g clip-path="url(#80f50a273d)"><path stroke-linecap="butt" transform="matrix(0.747627, 0, 0, 0.747627, 0.665691, 37.78484)" fill="none" stroke-linejoin="miter" d="M -0.00217874 0.000422814 L 559.999189 0.000422814 L 559.999189 182.076628 L -0.00217874 182.076628 Z M -0.00217874 0.000422814 " stroke="#ffffff" stroke-width="12" stroke-opacity="1" stroke-miterlimit="4"/></g><g clip-path="url(#9af1a1b76c)"><path fill="#000000" d="M 114.011719 154.285156 L 306.019531 154.285156 L 306.019531 182.566406 L 114.011719 182.566406 Z M 114.011719 154.285156 " fill-opacity="1" fill-rule="nonzero"/></g><g fill="#ffffff" fill-opacity="1"><g transform="translate(19.68452, 125.383802)"><g><path d="M 35.984375 -8.9375 L 17.09375 -8.9375 L 14.0625 0 L 1.15625 0 L 19.46875 -50.625 L 33.75 -50.625 L 52.0625 0 L 39.015625 0 Z M 32.8125 -18.453125 L 26.53125 -36.984375 L 20.328125 -18.453125 Z M 32.8125 -18.453125 "/></g></g></g><g fill="#ffffff" fill-opacity="1"><g transform="translate(75.487343, 125.383802)"><g><path d="M 22.78125 0.5 C 19.082031 0.5 15.765625 -0.0976562 12.828125 -1.296875 C 9.898438 -2.492188 7.554688 -4.269531 5.796875 -6.625 C 4.046875 -8.988281 3.125 -11.828125 3.03125 -15.140625 L 16.15625 -15.140625 C 16.34375 -13.265625 16.988281 -11.832031 18.09375 -10.84375 C 19.207031 -9.863281 20.648438 -9.375 22.421875 -9.375 C 24.253906 -9.375 25.695312 -9.789062 26.75 -10.625 C 27.8125 -11.46875 28.34375 -12.640625 28.34375 -14.140625 C 28.34375 -15.390625 27.921875 -16.421875 27.078125 -17.234375 C 26.234375 -18.046875 25.195312 -18.71875 23.96875 -19.25 C 22.75 -19.78125 21.007812 -20.382812 18.75 -21.0625 C 15.476562 -22.0625 12.804688 -23.066406 10.734375 -24.078125 C 8.671875 -25.085938 6.894531 -26.578125 5.40625 -28.546875 C 3.914062 -30.523438 3.171875 -33.097656 3.171875 -36.265625 C 3.171875 -40.984375 4.875 -44.675781 8.28125 -47.34375 C 11.695312 -50.007812 16.148438 -51.34375 21.640625 -51.34375 C 27.210938 -51.34375 31.703125 -50.007812 35.109375 -47.34375 C 38.523438 -44.675781 40.351562 -40.960938 40.59375 -36.203125 L 27.25 -36.203125 C 27.15625 -37.835938 26.554688 -39.125 25.453125 -40.0625 C 24.347656 -41 22.929688 -41.46875 21.203125 -41.46875 C 19.710938 -41.46875 18.507812 -41.066406 17.59375 -40.265625 C 16.675781 -39.472656 16.21875 -38.332031 16.21875 -36.84375 C 16.21875 -35.207031 16.988281 -33.929688 18.53125 -33.015625 C 20.070312 -32.109375 22.476562 -31.125 25.75 -30.0625 C 29.007812 -28.957031 31.660156 -27.898438 33.703125 -26.890625 C 35.753906 -25.878906 37.523438 -24.410156 39.015625 -22.484375 C 40.503906 -20.566406 41.25 -18.097656 41.25 -15.078125 C 41.25 -12.191406 40.515625 -9.566406 39.046875 -7.203125 C 37.578125 -4.847656 35.445312 -2.972656 32.65625 -1.578125 C 29.875 -0.191406 26.582031 0.5 22.78125 0.5 Z M 22.78125 0.5 "/></g></g></g><g fill="#ffffff" fill-opacity="1"><g transform="translate(122.494518, 125.383802)"><g><path d="M 40.890625 -50.625 L 40.890625 -40.734375 L 27.46875 -40.734375 L 27.46875 0 L 15.140625 0 L 15.140625 -40.734375 L 1.734375 -40.734375 L 1.734375 -50.625 Z M 40.890625 -50.625 "/></g></g></g><g fill="#ffffff" fill-opacity="1"><g transform="translate(167.771391, 125.383802)"><g><path d="M 30.28125 0 L 19.765625 -19.109375 L 16.796875 -19.109375 L 16.796875 0 L 4.46875 0 L 4.46875 -50.625 L 25.171875 -50.625 C 29.160156 -50.625 32.5625 -49.925781 35.375 -48.53125 C 38.1875 -47.132812 40.285156 -45.222656 41.671875 -42.796875 C 43.066406 -40.367188 43.765625 -37.664062 43.765625 -34.6875 C 43.765625 -31.320312 42.816406 -28.316406 40.921875 -25.671875 C 39.023438 -23.023438 36.222656 -21.148438 32.515625 -20.046875 L 44.203125 0 Z M 16.796875 -27.828125 L 24.4375 -27.828125 C 26.695312 -27.828125 28.390625 -28.378906 29.515625 -29.484375 C 30.648438 -30.597656 31.21875 -32.164062 31.21875 -34.1875 C 31.21875 -36.101562 30.648438 -37.613281 29.515625 -38.71875 C 28.390625 -39.820312 26.695312 -40.375 24.4375 -40.375 L 16.796875 -40.375 Z M 16.796875 -27.828125 "/></g></g></g><g fill="#ffffff" fill-opacity="1"><g transform="translate(217.446088, 125.383802)"><g><path d="M 28.40625 0.5 C 23.644531 0.5 19.28125 -0.601562 15.3125 -2.8125 C 11.351562 -5.019531 8.207031 -8.109375 5.875 -12.078125 C 3.539062 -16.046875 2.375 -20.503906 2.375 -25.453125 C 2.375 -30.398438 3.539062 -34.84375 5.875 -38.78125 C 8.207031 -42.726562 11.351562 -45.804688 15.3125 -48.015625 C 19.28125 -50.234375 23.644531 -51.34375 28.40625 -51.34375 C 33.164062 -51.34375 37.53125 -50.234375 41.5 -48.015625 C 45.46875 -45.804688 48.59375 -42.726562 50.875 -38.78125 C 53.15625 -34.84375 54.296875 -30.398438 54.296875 -25.453125 C 54.296875 -20.503906 53.140625 -16.046875 50.828125 -12.078125 C 48.523438 -8.109375 45.398438 -5.019531 41.453125 -2.8125 C 37.515625 -0.601562 33.164062 0.5 28.40625 0.5 Z M 28.40625 -10.75 C 32.445312 -10.75 35.679688 -12.09375 38.109375 -14.78125 C 40.535156 -17.476562 41.75 -21.035156 41.75 -25.453125 C 41.75 -29.921875 40.535156 -33.488281 38.109375 -36.15625 C 35.679688 -38.832031 32.445312 -40.171875 28.40625 -40.171875 C 24.320312 -40.171875 21.066406 -38.847656 18.640625 -36.203125 C 16.210938 -33.554688 15 -29.972656 15 -25.453125 C 15 -20.984375 16.210938 -17.414062 18.640625 -14.75 C 21.066406 -12.082031 24.320312 -10.75 28.40625 -10.75 Z M 28.40625 -10.75 "/></g></g></g><g fill="#ffffff" fill-opacity="1"><g transform="translate(276.781583, 125.383802)"><g><path d="M 74.125 -50.625 L 60.9375 0 L 46 0 L 37.921875 -33.3125 L 29.5625 0 L 14.640625 0 L 1.796875 -50.625 L 15 -50.625 L 22.28125 -13.765625 L 31.296875 -50.625 L 44.859375 -50.625 L 53.5 -13.765625 L 60.859375 -50.625 Z M 74.125 -50.625 "/></g></g></g><g fill="#ffffff" fill-opacity="1"><g transform="translate(355.294473, 125.383802)"><g><path d="M 43.046875 -34.328125 C 43.046875 -31.390625 42.375 -28.707031 41.03125 -26.28125 C 39.6875 -23.851562 37.617188 -21.894531 34.828125 -20.40625 C 32.035156 -18.914062 28.570312 -18.171875 24.4375 -18.171875 L 16.796875 -18.171875 L 16.796875 0 L 4.46875 0 L 4.46875 -50.625 L 24.4375 -50.625 C 28.476562 -50.625 31.890625 -49.925781 34.671875 -48.53125 C 37.460938 -47.132812 39.554688 -45.207031 40.953125 -42.75 C 42.347656 -40.300781 43.046875 -37.492188 43.046875 -34.328125 Z M 23.5 -27.984375 C 25.863281 -27.984375 27.617188 -28.535156 28.765625 -29.640625 C 29.921875 -30.742188 30.5 -32.304688 30.5 -34.328125 C 30.5 -36.347656 29.921875 -37.910156 28.765625 -39.015625 C 27.617188 -40.117188 25.863281 -40.671875 23.5 -40.671875 L 16.796875 -40.671875 L 16.796875 -27.984375 Z M 23.5 -27.984375 "/></g></g></g><g fill="#ffffff" fill-opacity="1"><g transform="translate(156.449695, 186.420121)"><g><path d="M 19.4375 -14.359375 C 21.0625 -14.015625 22.363281 -13.210938 23.34375 -11.953125 C 24.332031 -10.691406 24.828125 -9.25 24.828125 -7.625 C 24.828125 -5.28125 24.003906 -3.421875 22.359375 -2.046875 C 20.722656 -0.679688 18.445312 0 15.53125 0 L 2.46875 0 L 2.46875 -28.015625 L 15.078125 -28.015625 C 17.929688 -28.015625 20.160156 -27.363281 21.765625 -26.0625 C 23.378906 -24.757812 24.1875 -22.988281 24.1875 -20.75 C 24.1875 -19.101562 23.753906 -17.734375 22.890625 -16.640625 C 22.023438 -15.546875 20.875 -14.785156 19.4375 -14.359375 Z M 9.296875 -16.6875 L 13.765625 -16.6875 C 14.878906 -16.6875 15.734375 -16.929688 16.328125 -17.421875 C 16.929688 -17.910156 17.234375 -18.632812 17.234375 -19.59375 C 17.234375 -20.550781 16.929688 -21.28125 16.328125 -21.78125 C 15.734375 -22.289062 14.878906 -22.546875 13.765625 -22.546875 L 9.296875 -22.546875 Z M 14.328125 -5.5 C 15.472656 -5.5 16.359375 -5.757812 16.984375 -6.28125 C 17.609375 -6.800781 17.921875 -7.554688 17.921875 -8.546875 C 17.921875 -9.523438 17.59375 -10.289062 16.9375 -10.84375 C 16.289062 -11.40625 15.394531 -11.6875 14.25 -11.6875 L 9.296875 -11.6875 L 9.296875 -5.5 Z M 14.328125 -5.5 "/></g></g></g><g fill="#ffffff" fill-opacity="1"><g transform="translate(182.738136, 186.420121)"><g><path d="M 9.296875 -5.265625 L 18.234375 -5.265625 L 18.234375 0 L 2.46875 0 L 2.46875 -28.015625 L 9.296875 -28.015625 Z M 9.296875 -5.265625 "/></g></g></g><g fill="#ffffff" fill-opacity="1"><g transform="translate(201.766342, 186.420121)"><g><path d="M 15.71875 0.28125 C 13.082031 0.28125 10.664062 -0.328125 8.46875 -1.546875 C 6.28125 -2.773438 4.539062 -4.488281 3.25 -6.6875 C 1.957031 -8.882812 1.3125 -11.351562 1.3125 -14.09375 C 1.3125 -16.832031 1.957031 -19.289062 3.25 -21.46875 C 4.539062 -23.644531 6.28125 -25.34375 8.46875 -26.5625 C 10.664062 -27.789062 13.082031 -28.40625 15.71875 -28.40625 C 18.351562 -28.40625 20.769531 -27.789062 22.96875 -26.5625 C 25.164062 -25.34375 26.894531 -23.644531 28.15625 -21.46875 C 29.414062 -19.289062 30.046875 -16.832031 30.046875 -14.09375 C 30.046875 -11.351562 29.40625 -8.882812 28.125 -6.6875 C 26.851562 -4.488281 25.125 -2.773438 22.9375 -1.546875 C 20.757812 -0.328125 18.351562 0.28125 15.71875 0.28125 Z M 15.71875 -5.953125 C 17.957031 -5.953125 19.75 -6.695312 21.09375 -8.1875 C 22.4375 -9.675781 23.109375 -11.644531 23.109375 -14.09375 C 23.109375 -16.5625 22.4375 -18.535156 21.09375 -20.015625 C 19.75 -21.492188 17.957031 -22.234375 15.71875 -22.234375 C 13.457031 -22.234375 11.65625 -21.5 10.3125 -20.03125 C 8.96875 -18.570312 8.296875 -16.59375 8.296875 -14.09375 C 8.296875 -11.613281 8.96875 -9.632812 10.3125 -8.15625 C 11.65625 -6.6875 13.457031 -5.953125 15.71875 -5.953125 Z M 15.71875 -5.953125 "/></g></g></g><g fill="#ffffff" fill-opacity="1"><g transform="translate(233.120992, 186.420121)"><g><path d="M 21.078125 -19.15625 C 20.566406 -20.082031 19.835938 -20.789062 18.890625 -21.28125 C 17.953125 -21.78125 16.84375 -22.03125 15.5625 -22.03125 C 13.351562 -22.03125 11.582031 -21.300781 10.25 -19.84375 C 8.925781 -18.394531 8.265625 -16.460938 8.265625 -14.046875 C 8.265625 -11.460938 8.960938 -9.445312 10.359375 -8 C 11.753906 -6.550781 13.675781 -5.828125 16.125 -5.828125 C 17.800781 -5.828125 19.21875 -6.25 20.375 -7.09375 C 21.53125 -7.945312 22.375 -9.175781 22.90625 -10.78125 L 14.25 -10.78125 L 14.25 -15.796875 L 29.09375 -15.796875 L 29.09375 -9.453125 C 28.582031 -7.753906 27.722656 -6.171875 26.515625 -4.703125 C 25.304688 -3.242188 23.769531 -2.0625 21.90625 -1.15625 C 20.039062 -0.25 17.941406 0.203125 15.609375 0.203125 C 12.835938 0.203125 10.367188 -0.398438 8.203125 -1.609375 C 6.035156 -2.828125 4.34375 -4.507812 3.125 -6.65625 C 1.914062 -8.8125 1.3125 -11.273438 1.3125 -14.046875 C 1.3125 -16.816406 1.914062 -19.285156 3.125 -21.453125 C 4.34375 -23.617188 6.023438 -25.304688 8.171875 -26.515625 C 10.328125 -27.722656 12.789062 -28.328125 15.5625 -28.328125 C 18.914062 -28.328125 21.742188 -27.515625 24.046875 -25.890625 C 26.347656 -24.273438 27.867188 -22.03125 28.609375 -19.15625 Z M 21.078125 -19.15625 "/></g></g></g></svg>